# xmcd
#
# Track frame offsets:
#	150
#	17953
#	28467
#	44009
#	65080
#	76906
#	90764
#	107645
#	122977
#	133998
#	150788
#	162102
#
# Disc length: 2371 seconds
#
# Revision: 1
# Processed by: cddbd v1.5.2PL0 Copyright (c) Steve Scherf et al.
# Submitted via: audiograbber 1.83.01
#
DISCID=9a09410c
DTITLE=Jürgen Marcus - Nur Liebe Zählt
DYEAR=1973
DGENRE=Schlager
TTITLE0=Ein Festival Der Liebe
TTITLE1=Du Bist Mein Sonnenschein
TTITLE2=Nur Liebe Zählt
TTITLE3=Wein' Ihm Keine Träne Nach
TTITLE4=Ich Seh' Den Weg Vor Mir
TTITLE5=Unter Der Heißen Sonne Von Santa Maria
TTITLE6=Eine Neue Liebe Ist Wie Ein Neues Leben
TTITLE7=Im Land, Das Gestern Heißt
TTITLE8=Warum Kann Ich Deine Liebe Nicht Vergessen
TTITLE9=Schmetterlinge Können Nicht Weinen
TTITLE10=Was Auf Dieser Welt Kann Schöner Sein
TTITLE11=Ich Könnte Heut' Die Ganze Welt Umarmen
EXTD=
EXTT0=
EXTT1=
EXTT2=
EXTT3=
EXTT4=
EXTT5=
EXTT6=
EXTT7=
EXTT8=
EXTT9=
EXTT10=
EXTT11=
PLAYORDER=
